<?xml version="1.0" encoding="UTF-8"?>
<svg id="Layer_1" xmlns="http://www.w3.org/2000/svg" version="1.1" width="150" height="150" viewBox="0 0 60 60">
  <!-- Generator: Adobe Illustrator 29.8.2, SVG Export Plug-In . SVG Version: 2.1.1 Build 3)  -->
  <defs>
    <style>
      .st0 {
        fill: #5a994d;
        fill-rule: evenodd;
      }
    </style>
  </defs>
  <path class="st0" d="M21.6,2.8C21.6,1.2,20.4,0,18.8,0h-8.8C4.5,0,0,4.5,0,10v36.4c0,4.4,3.6,8,8,8h5.2c1.5,0,2.8,1.2,2.8,2.8h0c0,1.5,1.2,2.8,2.8,2.8h22.2c1.5,0,2.8-1.2,2.8-2.8h0c0-1.5,1.2-2.8,2.8-2.8h5.3c4.5,0,8.1-3.6,8.1-8.1V10C60,4.5,55.5,0,50,0h-9C39.5,0,38.3,1.2,38.3,2.8h0c0,1.5-1.2,2.8-2.8,2.8h-11.1c-1.5,0-2.8-1.2-2.8-2.8h0Z"/>
</svg>