<?xml version="1.0" encoding="UTF-8"?>
<svg id="Layer_2" data-name="Layer 2" xmlns="http://www.w3.org/2000/svg" xmlns:xlink="http://www.w3.org/1999/xlink" viewBox="0 0 321.66 149.86" width="321.66" height="149.86">
  <defs>
    <style>
      .cls-1 {
        fill: url(#linear-gradient-8);
      }

      .cls-2 {
        fill: url(#linear-gradient-7);
      }

      .cls-3 {
        fill: url(#linear-gradient-5);
      }

      .cls-4 {
        fill: url(#linear-gradient-6);
      }

      .cls-5 {
        fill: url(#linear-gradient-9);
      }

      .cls-6 {
        fill: url(#linear-gradient-4);
      }

      .cls-7 {
        fill: url(#linear-gradient-3);
      }

      .cls-8 {
        fill: url(#linear-gradient-2);
      }

      .cls-9 {
        fill: #231f20;
      }

      .cls-10 {
        fill: url(#linear-gradient);
      }
    </style>
    <linearGradient id="linear-gradient" x1="34.05" y1="12.29" x2="62.16" y2="12.29" gradientUnits="userSpaceOnUse">
      <stop offset="0" stop-color="#3d7843"/>
      <stop offset="1" stop-color="#67a650"/>
    </linearGradient>
    <linearGradient id="linear-gradient-2" x1="64.28" y1="12.96" x2="78.53" y2="12.96" xlink:href="#linear-gradient"/>
    <linearGradient id="linear-gradient-3" x1="24.15" y1="145.17" x2="24.15" y2="65.7" xlink:href="#linear-gradient"/>
    <linearGradient id="linear-gradient-4" x1="71" y1="145.16" x2="71" y2="65.7" xlink:href="#linear-gradient"/>
    <linearGradient id="linear-gradient-5" x1="50.16" y1="120.09" x2="50.16" y2="14.82" xlink:href="#linear-gradient"/>
    <linearGradient id="linear-gradient-6" x1="44.65" y1="118.81" x2="44.65" y2="148.41" xlink:href="#linear-gradient"/>
    <linearGradient id="linear-gradient-7" x1="91.67" y1="103.04" x2="70.73" y2="76.33" gradientUnits="userSpaceOnUse">
      <stop offset=".55" stop-color="#28693e"/>
      <stop offset="1" stop-color="#67a650"/>
    </linearGradient>
    <linearGradient id="linear-gradient-8" x1=".79" y1="96.14" x2="24.25" y2="59.69" xlink:href="#linear-gradient-7"/>
    <linearGradient id="linear-gradient-9" x1="32.27" y1="84.26" x2="52.2" y2="53.3" xlink:href="#linear-gradient-7"/>
  </defs>
  <g id="Layer_1-2" data-name="Layer 1">
    <g>
      <g>
        <g>
          <path class="cls-10" d="M34.05.02c4.02-.11,7.57.31,11.06,1.2,9.95,2.54,15.68,9.08,16.95,19.29.37,2.94-.35,3.8-3.36,4.01-11.1.78-19.39-5.09-22.8-16.29-.79-2.59-1.21-5.29-1.87-8.21Z"/>
          <path class="cls-8" d="M78.03,2.95c1.97,9.99-1.87,17.87-10.89,19.91-1.4.32-1.97.03-2.33-1.37-1.4-5.57-.12-10.8,4.6-14.53,2.55-2.01,5.44-3.3,8.61-4Z"/>
        </g>
        <g>
          <path class="cls-7" d="M19.84,62.24c-9.88,9.89-11.06,25.22-3.53,36.4.05.07.1.15.16.22.09.12.14.18.14.18.94,1.37,2.03,2.66,3.24,3.88l18.8,18.8c-1.15,1.3-2.68,2.26-4.67,2.81-2.11.58-4.47.95-6.59.59-.62-.1-1.23-.22-1.85-.35l-13.78-13.78C-1.57,97.68-3.57,77.24,5.78,61.8t0-.02c1.64-2.71,3.63-5.27,5.97-7.61l26.78-26.79c2.24-2.24,5.86-2.24,8.08,0,1.11,1.12,1.68,2.58,1.68,4.04s-.57,2.93-1.68,4.04l-26.78,26.78Z"/>
          <path class="cls-6" d="M82.57,106.64l-18.05,18.05c-1.3.25-2.61.46-3.92.59-4.12.41-7.25-.86-9.31-3.52l23.19-23.2c.36-.36.72-.75,1.05-1.14,6.4-7.52,6.05-18.85-1.05-25.95l-2.35-2.35-11.87,11.87c-2.24,2.24-5.85,2.24-8.08,0-1.12-1.12-1.68-2.58-1.68-4.04s.56-2.94,1.68-4.05l19.95-19.95,10.44,10.44c2.13,2.12,3.87,4.47,5.22,6.99,6.33,11.6,4.59,26.46-5.22,36.27Z"/>
        </g>
        <path class="cls-3" d="M38.06,73.61c-1.26,1.26-1.95,2.93-1.95,4.7,0,.81.15,1.61.43,2.34.33.88.84,1.68,1.52,2.35l.47.47c.3.33.49.49.49.49l15,15.01c2.23,2.23,2.23,5.85,0,8.08h0c-2.23,2.23-5.85,2.23-8.08,0l-15.69-15.7c-3.31-3.31-5.38-7.72-5.55-12.4-.17-5.06,1.72-9.86,5.28-13.43l11.93-12.57s0,0,0,0l23.87-25.17c2.22-2.34,5.91-2.38,8.18-.11,1.11,1.11,1.68,2.58,1.68,4.05s-.52,2.82-1.57,3.92l-36.01,37.97Z"/>
        <path class="cls-4" d="M77.59,124.58c-.35,1.12-.65,2.28-1.12,3.35-.12.27-.78.38-1.21.44-1.76.24-3.52.44-5.46.68,1.4,1.06,2.52,1.9,3.64,2.75.7.53.87,1.09.29,1.84-.51.65-.94,1.36-1.58,2.29-4.05-5.37-9.3-4.2-14.61-2.91.95,5.77,5.45,6.7,10.03,7.49-.88,2.17-3.36,3.23-5.4,2.52-3.68-1.28-6.29-3.57-7.72-7.25-.05-.13-.1-.27-.16-.4-1.05-2.42-2.84-4.31-5.21-5.96-.45,3.56-.12,6.83,1.16,10.01.02.07.05.13.08.2,1.36,3.27,3.76,5.63,6.96,7.87-1.9.56-3.36,1.03-4.85,1.4-.28.07-.79-.14-.96-.38-1.45-2.04-2.9-4.07-4.05-6.26-1.12-2.13-1.96-4.4-2.22-6.94-.07-.67-.09-1.35-.14-2.05-2.63,1.4-4.13,4.76-3.83,7.75.07.7.24,1.37.52,2,.93,2.13,1.73,4.32,2.72,6.84-1.39-.12-2.39-.13-3.36-.33-.33-.07-.67-.58-.82-.96-.69-1.65-1.31-3.34-2.08-5.3-1.34,1.23-2.56,2.19-3.58,3.33-.93,1.04-1.81,1.31-3.02.57-.62-.38-1.31-.62-2.23-1.04,3.6-2.39,6.29-5.32,8.17-8.79,1.1-2.03,1.91-4.24,2.47-6.64-2.75-.16-5.14.45-7.03,2.08-.65.56-1.25,1.23-1.78,2.05-1.96,3.01-4.16,5.78-7.2,7.95-.89-.76-1.76-1.51-2.45-2.11,2.59-2.97,5.1-5.84,7.84-8.97-5.35-1.37-8.43,1.79-11.86,4.55-.73-1.06-1.37-2.01-2.19-3.22,1.9-1.2,3.72-2.35,5.55-3.5,0-.12,0-.24.01-.36-2.16-.27-4.32-.66-6.49-.77-1-.05-1.53-.26-1.76-1.24-.21-.88-.51-1.74-.93-3.14,2.79.68,5.18,1.25,7.56,1.84,3.02.74,6.01,1.64,9.04,2.26.53.11,1.06.21,1.59.29,1.81.31,3.83,0,5.62-.5,1.7-.47,3.01-1.3,3.99-2.41,1.26-1.41,1.99-3.27,2.33-5.42.16-1,.27-2.01.43-3.1h5.35c.23,1.3.4,2.64.68,3.95.4,1.84,1.08,3.38,2.01,4.59,1.76,2.28,4.43,3.36,7.95,3.01,1.12-.12,2.23-.29,3.35-.51,2.7-.52,5.38-1.27,8.06-1.89,2.55-.59,5.06-1.31,7.59-1.97.11.13.21.27.32.4Z"/>
        <path class="cls-2" d="M87.79,70.37c-1.2,13.27-12.22,27.06-12.22,27.06l-.04-.02c6.4-7.52,6.05-18.85-1.05-25.95l-2.35-2.35-11.87,11.87c-2.24,2.24-5.85,2.24-8.08,0-1.12-1.12-1.68-2.58-1.68-4.04s.56-2.94,1.68-4.05l19.95-19.95,10.44,10.44c2.13,2.12,3.87,4.47,5.22,6.99Z"/>
        <path class="cls-1" d="M48.3,31.42c0,1.47-.57,2.93-1.68,4.04l-26.78,26.78c-9.88,9.89-11.06,25.22-3.53,36.4-2.19-2.99-15.62-22.24-10.53-36.85t0-.02c1.64-2.71,3.63-5.27,5.97-7.61l26.78-26.79c2.24-2.24,5.86-2.24,8.08,0,1.11,1.12,1.68,2.58,1.68,4.04Z"/>
        <path class="cls-5" d="M75.64,31.71c0,1.41-.52,2.82-1.57,3.92l-36.01,37.97c-1.26,1.26-1.95,2.93-1.95,4.7,0,.81.15,1.61.43,2.34-2.5-4.57-4.72-13.86,5.36-27.7,0,0,0,0,0,0l23.87-25.17c2.22-2.34,5.91-2.38,8.18-.11,1.11,1.11,1.68,2.58,1.68,4.05Z"/>
      </g>
      <g>
        <g>
          <path class="cls-9" d="M141.94,89.87c-3.66,1.33-7.72,1.99-12.18,1.99-5.77,0-10.22-1.39-13.36-4.17-3.07-2.72-4.61-6.5-4.61-11.34,0-5.32,1.69-9.53,5.07-12.64,3.5-3.23,8.4-4.85,14.7-4.85,3.48,0,6.84.46,10.07,1.39l-1.36,5.64c-2.73-1.01-5.77-1.51-9.12-1.51-4,0-7.05,1.1-9.14,3.29-1.85,1.96-2.78,4.58-2.78,7.86s.96,6.06,2.88,7.93c1.97,1.9,4.79,2.85,8.45,2.85,1.65,0,3.16-.19,4.53-.58v-11.15h6.85v15.28Z"/>
          <path class="cls-9" d="M166.23,91.4l-9.61-13.24h-.59v13.24h-6.85v-32.05c2.49-.14,5.9-.21,10.22-.21,8.62,0,12.93,3.02,12.93,9.05,0,2.32-.84,4.31-2.52,5.96-1.61,1.58-3.69,2.57-6.23,2.97,1.34,1.58,2.29,2.74,2.86,3.5l8.27,10.78h-8.47ZM158.73,64.17c-1.12,0-2.02.06-2.7.16v9.25c.63.06,1.46.09,2.47.09,2.06,0,3.68-.44,4.87-1.32,1.2-.88,1.8-2.07,1.8-3.57,0-3.08-2.15-4.62-6.44-4.62Z"/>
          <path class="cls-9" d="M205.24,87.39c-3.26,3.03-7.36,4.55-12.28,4.55-5.32,0-9.38-1.45-12.18-4.36-2.68-2.77-4.02-6.67-4.02-11.71s1.71-9.33,5.12-12.5c3.26-3.03,7.36-4.55,12.28-4.55,5.32,0,9.37,1.44,12.15,4.34,2.69,2.78,4.04,6.69,4.04,11.71s-1.71,9.35-5.12,12.52ZM200.71,67.44c-1.63-2.04-4.01-3.06-7.13-3.06-2.76,0-5.01.93-6.75,2.78-1.82,1.95-2.73,4.6-2.73,7.95s.77,6.23,2.32,8.16c1.63,2.03,4,3.04,7.11,3.04,2.78,0,5.04-.92,6.77-2.76,1.82-1.95,2.73-4.61,2.73-7.98s-.77-6.21-2.32-8.14Z"/>
          <path class="cls-9" d="M251.28,91.4h-8.45l-5.15-17.67c-.48-1.65-.94-3.86-1.39-6.61h-.05c-.26,2.23-.7,4.38-1.31,6.47l-5.15,17.81h-7.98l-9.06-32.05h7.34l4.84,17.72c.55,1.93.99,4.1,1.31,6.49h.05c.45-2.54.91-4.64,1.39-6.31l5.43-17.9h7.26l5.49,17.81c.69,2.27,1.16,4.34,1.42,6.22h.05c.38-2.27.82-4.31,1.34-6.12l4.84-17.9h6.85l-9.07,32.05Z"/>
          <path class="cls-9" d="M279.12,64.62v26.79h-6.88v-26.79h-9.22v-5.27h25.31v5.27h-9.22Z"/>
          <path class="cls-9" d="M314.76,91.4v-13.92h-15.09v13.92h-6.85v-32.05h6.85v12.82h15.09v-12.82h6.9v32.05h-6.9Z"/>
        </g>
        <g>
          <path class="cls-9" d="M128.84,135.52l-9.61-13.24h-.59v13.24h-6.85v-32.05c2.49-.14,5.9-.21,10.22-.21,8.62,0,12.93,3.02,12.93,9.05,0,2.32-.84,4.31-2.52,5.96-1.61,1.58-3.69,2.57-6.23,2.97,1.34,1.58,2.29,2.74,2.86,3.5l8.27,10.78h-8.47ZM121.34,108.29c-1.12,0-2.02.06-2.7.16v9.25c.63.06,1.46.09,2.47.09,2.06,0,3.68-.44,4.87-1.32,1.2-.88,1.8-2.07,1.8-3.57,0-3.08-2.15-4.62-6.44-4.62Z"/>
          <path class="cls-9" d="M167.85,131.51c-3.26,3.03-7.36,4.55-12.28,4.55-5.32,0-9.38-1.45-12.18-4.36-2.68-2.77-4.02-6.67-4.02-11.71s1.71-9.33,5.12-12.5c3.26-3.03,7.36-4.55,12.28-4.55,5.32,0,9.37,1.44,12.15,4.34,2.7,2.78,4.04,6.69,4.04,11.71s-1.71,9.35-5.12,12.52ZM163.32,111.56c-1.63-2.04-4.01-3.06-7.13-3.06-2.76,0-5.01.93-6.75,2.78-1.82,1.95-2.73,4.6-2.73,7.95s.77,6.23,2.32,8.16c1.63,2.03,4,3.04,7.11,3.04,2.78,0,5.04-.92,6.77-2.76,1.82-1.95,2.73-4.61,2.73-7.98s-.77-6.21-2.32-8.14Z"/>
          <path class="cls-9" d="M205.63,131.51c-3.26,3.03-7.36,4.55-12.28,4.55-5.32,0-9.38-1.45-12.18-4.36-2.68-2.77-4.02-6.67-4.02-11.71s1.71-9.33,5.12-12.5c3.26-3.03,7.36-4.55,12.28-4.55,5.32,0,9.37,1.44,12.15,4.34,2.7,2.78,4.04,6.69,4.04,11.71s-1.71,9.35-5.12,12.52ZM201.09,111.56c-1.63-2.04-4.01-3.06-7.13-3.06-2.76,0-5.01.93-6.75,2.78-1.82,1.95-2.73,4.6-2.73,7.95s.77,6.23,2.32,8.16c1.63,2.03,4,3.04,7.11,3.04,2.78,0,5.04-.92,6.77-2.76,1.82-1.95,2.73-4.61,2.73-7.98s-.77-6.21-2.32-8.14Z"/>
          <path class="cls-9" d="M229.11,108.73v26.79h-6.88v-26.79h-9.22v-5.27h25.31v5.27h-9.22Z"/>
          <path class="cls-9" d="M260.35,133.08c-2.58,1.98-5.9,2.97-9.97,2.97-3.11,0-5.85-.29-8.24-.86l.75-5.94c2.44.91,5.02,1.37,7.75,1.37,3.98,0,5.97-1.39,5.97-4.17,0-1.33-.78-2.42-2.34-3.27-.41-.22-2.13-.89-5.15-2.02-4.99-1.84-7.49-4.7-7.49-8.58,0-2.91,1.17-5.23,3.5-6.96,2.4-1.79,5.72-2.69,9.94-2.69,2.13,0,4.28.21,6.44.63l-.62,5.4c-2.06-.6-4.1-.9-6.13-.9-3.9,0-5.85,1.28-5.85,3.85,0,1.24.79,2.28,2.37,3.13.34.19,2.09.88,5.25,2.09,5.07,1.95,7.6,4.8,7.6,8.56,0,3-1.26,5.47-3.78,7.4Z"/>
        </g>
      </g>
    </g>
  </g>
</svg>